<mxfile host="app.diagrams.net" modified="2024-03-20T23:08:40.171Z" agent="Mozilla/5.0 (Windows NT 10.0; Win64; x64) AppleWebKit/537.36 (KHTML, like Gecko) Chrome/122.0.0.0 Safari/537.36" etag="MqhyxnxG30bq3VK4gazk" version="21.6.5" type="device">
  <diagram id="C5RBs43oDa-KdzZeNtuy" name="Page-1">
    <mxGraphModel dx="3282" dy="2272" grid="1" gridSize="10" guides="1" tooltips="1" connect="1" arrows="1" fold="1" page="1" pageScale="1" pageWidth="827" pageHeight="1169" math="0" shadow="0">
      <root>
        <mxCell id="WIyWlLk6GJQsqaUBKTNV-0" />
        <mxCell id="WIyWlLk6GJQsqaUBKTNV-1" parent="WIyWlLk6GJQsqaUBKTNV-0" />
        <mxCell id="jXXAGItoZEFWX7bIlFFn-119" style="edgeStyle=orthogonalEdgeStyle;rounded=0;orthogonalLoop=1;jettySize=auto;html=1;labelBackgroundColor=none;fontSize=18;" parent="WIyWlLk6GJQsqaUBKTNV-1" source="8ujiRsxlkH-QBAE6qNTh-2" target="8ujiRsxlkH-QBAE6qNTh-22" edge="1">
          <mxGeometry relative="1" as="geometry" />
        </mxCell>
        <mxCell id="Ys6ZrjkEw98oZ9NDUKdI-1" style="edgeStyle=orthogonalEdgeStyle;rounded=0;orthogonalLoop=1;jettySize=auto;html=1;exitX=0;exitY=0.25;exitDx=0;exitDy=0;" parent="WIyWlLk6GJQsqaUBKTNV-1" source="8ujiRsxlkH-QBAE6qNTh-2" target="8ujiRsxlkH-QBAE6qNTh-20" edge="1">
          <mxGeometry relative="1" as="geometry" />
        </mxCell>
        <mxCell id="Ys6ZrjkEw98oZ9NDUKdI-2" style="edgeStyle=orthogonalEdgeStyle;rounded=0;orthogonalLoop=1;jettySize=auto;html=1;exitX=0;exitY=0.75;exitDx=0;exitDy=0;" parent="WIyWlLk6GJQsqaUBKTNV-1" source="8ujiRsxlkH-QBAE6qNTh-2" target="8ujiRsxlkH-QBAE6qNTh-21" edge="1">
          <mxGeometry relative="1" as="geometry" />
        </mxCell>
        <mxCell id="Ys6ZrjkEw98oZ9NDUKdI-4" style="edgeStyle=orthogonalEdgeStyle;rounded=0;orthogonalLoop=1;jettySize=auto;html=1;exitX=1;exitY=0.5;exitDx=0;exitDy=0;" parent="WIyWlLk6GJQsqaUBKTNV-1" source="8ujiRsxlkH-QBAE6qNTh-2" target="8ujiRsxlkH-QBAE6qNTh-18" edge="1">
          <mxGeometry relative="1" as="geometry" />
        </mxCell>
        <mxCell id="8ujiRsxlkH-QBAE6qNTh-2" value="Asn1DecodedDataRouter.java" style="rounded=0;whiteSpace=wrap;html=1;fillColor=#dae8fc;strokeColor=#6c8ebf;" parent="WIyWlLk6GJQsqaUBKTNV-1" vertex="1">
          <mxGeometry x="-230" y="-200" width="170" height="60" as="geometry" />
        </mxCell>
        <mxCell id="8ujiRsxlkH-QBAE6qNTh-18" value="OdeBsmDuringEventPojo" style="ellipse;whiteSpace=wrap;html=1;fillColor=#fff2cc;strokeColor=#d6b656;" parent="WIyWlLk6GJQsqaUBKTNV-1" vertex="1">
          <mxGeometry x="-77.5" y="-60" width="150" height="80" as="geometry" />
        </mxCell>
        <mxCell id="8ujiRsxlkH-QBAE6qNTh-20" value="OdeBsmRxPojo" style="ellipse;whiteSpace=wrap;html=1;fillColor=#fff2cc;strokeColor=#d6b656;" parent="WIyWlLk6GJQsqaUBKTNV-1" vertex="1">
          <mxGeometry x="-460" y="-60" width="120" height="80" as="geometry" />
        </mxCell>
        <mxCell id="gxxZRGfVhdAJ79STQYsQ-39" style="edgeStyle=orthogonalEdgeStyle;rounded=0;orthogonalLoop=1;jettySize=auto;html=1;entryX=0.5;entryY=0;entryDx=0;entryDy=0;" parent="WIyWlLk6GJQsqaUBKTNV-1" source="8ujiRsxlkH-QBAE6qNTh-22" target="gxxZRGfVhdAJ79STQYsQ-35" edge="1">
          <mxGeometry relative="1" as="geometry" />
        </mxCell>
        <mxCell id="8ujiRsxlkH-QBAE6qNTh-22" value="OdeBsmPojo" style="ellipse;whiteSpace=wrap;html=1;fillColor=#fff2cc;strokeColor=#d6b656;" parent="WIyWlLk6GJQsqaUBKTNV-1" vertex="1">
          <mxGeometry x="-205" y="-60" width="120" height="80" as="geometry" />
        </mxCell>
        <mxCell id="gxxZRGfVhdAJ79STQYsQ-4" style="edgeStyle=orthogonalEdgeStyle;rounded=0;orthogonalLoop=1;jettySize=auto;html=1;entryX=0.5;entryY=0;entryDx=0;entryDy=0;" parent="WIyWlLk6GJQsqaUBKTNV-1" source="gxxZRGfVhdAJ79STQYsQ-1" target="gxxZRGfVhdAJ79STQYsQ-3" edge="1">
          <mxGeometry relative="1" as="geometry" />
        </mxCell>
        <mxCell id="gxxZRGfVhdAJ79STQYsQ-1" value="BsmReceiver.java" style="rounded=0;whiteSpace=wrap;html=1;fillColor=#dae8fc;strokeColor=#6c8ebf;" parent="WIyWlLk6GJQsqaUBKTNV-1" vertex="1">
          <mxGeometry x="-500" y="-820" width="120" height="60" as="geometry" />
        </mxCell>
        <mxCell id="gxxZRGfVhdAJ79STQYsQ-10" style="edgeStyle=orthogonalEdgeStyle;rounded=0;orthogonalLoop=1;jettySize=auto;html=1;entryX=0.5;entryY=0;entryDx=0;entryDy=0;" parent="WIyWlLk6GJQsqaUBKTNV-1" source="gxxZRGfVhdAJ79STQYsQ-3" target="gxxZRGfVhdAJ79STQYsQ-9" edge="1">
          <mxGeometry relative="1" as="geometry" />
        </mxCell>
        <mxCell id="gxxZRGfVhdAJ79STQYsQ-3" value="OdeRawEncodedBSMJson" style="ellipse;whiteSpace=wrap;html=1;fillColor=#fff2cc;strokeColor=#d6b656;" parent="WIyWlLk6GJQsqaUBKTNV-1" vertex="1">
          <mxGeometry x="-525" y="-730" width="170" height="80" as="geometry" />
        </mxCell>
        <mxCell id="gxxZRGfVhdAJ79STQYsQ-20" style="edgeStyle=orthogonalEdgeStyle;rounded=0;orthogonalLoop=1;jettySize=auto;html=1;entryX=0;entryY=0.5;entryDx=0;entryDy=0;" parent="WIyWlLk6GJQsqaUBKTNV-1" source="gxxZRGfVhdAJ79STQYsQ-5" target="gxxZRGfVhdAJ79STQYsQ-19" edge="1">
          <mxGeometry relative="1" as="geometry" />
        </mxCell>
        <mxCell id="gxxZRGfVhdAJ79STQYsQ-5" value="ACM (ADM)" style="shape=process;whiteSpace=wrap;html=1;backgroundOutline=1;fillColor=#d5e8d4;strokeColor=#82b366;" parent="WIyWlLk6GJQsqaUBKTNV-1" vertex="1">
          <mxGeometry x="-300" y="-530" width="120" height="60" as="geometry" />
        </mxCell>
        <mxCell id="jXXAGItoZEFWX7bIlFFn-2" style="edgeStyle=orthogonalEdgeStyle;rounded=0;orthogonalLoop=1;jettySize=auto;html=1;entryX=0.5;entryY=0;entryDx=0;entryDy=0;exitX=0.5;exitY=1;exitDx=0;exitDy=0;" parent="WIyWlLk6GJQsqaUBKTNV-1" source="gxxZRGfVhdAJ79STQYsQ-9" target="gxxZRGfVhdAJ79STQYsQ-11" edge="1">
          <mxGeometry relative="1" as="geometry" />
        </mxCell>
        <mxCell id="gxxZRGfVhdAJ79STQYsQ-9" value="AsnCodecMessageServiceController.java" style="rounded=0;whiteSpace=wrap;html=1;fillColor=#dae8fc;strokeColor=#6c8ebf;" parent="WIyWlLk6GJQsqaUBKTNV-1" vertex="1">
          <mxGeometry x="-555" y="-620" width="230" height="60" as="geometry" />
        </mxCell>
        <mxCell id="jXXAGItoZEFWX7bIlFFn-117" style="edgeStyle=orthogonalEdgeStyle;rounded=0;orthogonalLoop=1;jettySize=auto;html=1;labelBackgroundColor=none;fontSize=18;" parent="WIyWlLk6GJQsqaUBKTNV-1" source="gxxZRGfVhdAJ79STQYsQ-11" target="gxxZRGfVhdAJ79STQYsQ-13" edge="1">
          <mxGeometry relative="1" as="geometry" />
        </mxCell>
        <mxCell id="gxxZRGfVhdAJ79STQYsQ-11" value="Asn1DecodeBSMJSON.java" style="rounded=0;whiteSpace=wrap;html=1;fillColor=#dae8fc;strokeColor=#6c8ebf;" parent="WIyWlLk6GJQsqaUBKTNV-1" vertex="1">
          <mxGeometry x="-520" y="-530" width="160" height="60" as="geometry" />
        </mxCell>
        <mxCell id="gxxZRGfVhdAJ79STQYsQ-18" style="edgeStyle=orthogonalEdgeStyle;rounded=0;orthogonalLoop=1;jettySize=auto;html=1;entryX=0;entryY=0.5;entryDx=0;entryDy=0;" parent="WIyWlLk6GJQsqaUBKTNV-1" source="gxxZRGfVhdAJ79STQYsQ-13" target="gxxZRGfVhdAJ79STQYsQ-5" edge="1">
          <mxGeometry relative="1" as="geometry" />
        </mxCell>
        <mxCell id="gxxZRGfVhdAJ79STQYsQ-13" value="Asn1DecoderInput" style="ellipse;whiteSpace=wrap;html=1;fillColor=#fff2cc;strokeColor=#d6b656;" parent="WIyWlLk6GJQsqaUBKTNV-1" vertex="1">
          <mxGeometry x="-500" y="-440" width="120" height="80" as="geometry" />
        </mxCell>
        <mxCell id="gxxZRGfVhdAJ79STQYsQ-116" style="edgeStyle=orthogonalEdgeStyle;rounded=0;orthogonalLoop=1;jettySize=auto;html=1;" parent="WIyWlLk6GJQsqaUBKTNV-1" source="gxxZRGfVhdAJ79STQYsQ-19" target="gxxZRGfVhdAJ79STQYsQ-105" edge="1">
          <mxGeometry relative="1" as="geometry" />
        </mxCell>
        <mxCell id="gxxZRGfVhdAJ79STQYsQ-19" value="Asn1DecoderOutput" style="ellipse;whiteSpace=wrap;html=1;fillColor=#fff2cc;strokeColor=#d6b656;" parent="WIyWlLk6GJQsqaUBKTNV-1" vertex="1">
          <mxGeometry x="-205" y="-440" width="120" height="80" as="geometry" />
        </mxCell>
        <mxCell id="gxxZRGfVhdAJ79STQYsQ-42" style="edgeStyle=orthogonalEdgeStyle;rounded=0;orthogonalLoop=1;jettySize=auto;html=1;entryX=0.5;entryY=0;entryDx=0;entryDy=0;exitX=0.5;exitY=1;exitDx=0;exitDy=0;" parent="WIyWlLk6GJQsqaUBKTNV-1" source="gxxZRGfVhdAJ79STQYsQ-35" target="gxxZRGfVhdAJ79STQYsQ-41" edge="1">
          <mxGeometry relative="1" as="geometry" />
        </mxCell>
        <mxCell id="gxxZRGfVhdAJ79STQYsQ-35" value="ToJsonServiceController.java" style="rounded=0;whiteSpace=wrap;html=1;fillColor=#dae8fc;strokeColor=#6c8ebf;" parent="WIyWlLk6GJQsqaUBKTNV-1" vertex="1">
          <mxGeometry x="-230" y="60" width="170" height="60" as="geometry" />
        </mxCell>
        <mxCell id="gxxZRGfVhdAJ79STQYsQ-45" style="edgeStyle=orthogonalEdgeStyle;rounded=0;orthogonalLoop=1;jettySize=auto;html=1;" parent="WIyWlLk6GJQsqaUBKTNV-1" source="gxxZRGfVhdAJ79STQYsQ-41" target="gxxZRGfVhdAJ79STQYsQ-44" edge="1">
          <mxGeometry relative="1" as="geometry" />
        </mxCell>
        <mxCell id="gxxZRGfVhdAJ79STQYsQ-41" value="OdeBsmJson" style="ellipse;whiteSpace=wrap;html=1;fillColor=#fff2cc;strokeColor=#d6b656;" parent="WIyWlLk6GJQsqaUBKTNV-1" vertex="1">
          <mxGeometry x="-210" y="150" width="120" height="80" as="geometry" />
        </mxCell>
        <mxCell id="gxxZRGfVhdAJ79STQYsQ-47" style="edgeStyle=orthogonalEdgeStyle;rounded=0;orthogonalLoop=1;jettySize=auto;html=1;entryX=0;entryY=0.5;entryDx=0;entryDy=0;" parent="WIyWlLk6GJQsqaUBKTNV-1" source="gxxZRGfVhdAJ79STQYsQ-44" target="gxxZRGfVhdAJ79STQYsQ-46" edge="1">
          <mxGeometry relative="1" as="geometry">
            <mxPoint x="150" y="190" as="targetPoint" />
          </mxGeometry>
        </mxCell>
        <mxCell id="gxxZRGfVhdAJ79STQYsQ-44" value="PPM (BSM)" style="shape=process;whiteSpace=wrap;html=1;backgroundOutline=1;fillColor=#d5e8d4;strokeColor=#82b366;" parent="WIyWlLk6GJQsqaUBKTNV-1" vertex="1">
          <mxGeometry x="-40" y="160" width="120" height="60" as="geometry" />
        </mxCell>
        <mxCell id="gxxZRGfVhdAJ79STQYsQ-46" value="FilteredOdeBsmJson" style="ellipse;whiteSpace=wrap;html=1;fillColor=#fff2cc;strokeColor=#d6b656;" parent="WIyWlLk6GJQsqaUBKTNV-1" vertex="1">
          <mxGeometry x="120" y="150" width="120" height="80" as="geometry" />
        </mxCell>
        <mxCell id="8ujiRsxlkH-QBAE6qNTh-21" value="OdeBsmTxPojo" style="ellipse;whiteSpace=wrap;html=1;fillColor=#fff2cc;strokeColor=#d6b656;" parent="WIyWlLk6GJQsqaUBKTNV-1" vertex="1">
          <mxGeometry x="-332.5" y="-60" width="120" height="80" as="geometry" />
        </mxCell>
        <mxCell id="gxxZRGfVhdAJ79STQYsQ-108" style="edgeStyle=orthogonalEdgeStyle;rounded=0;orthogonalLoop=1;jettySize=auto;html=1;entryX=0.5;entryY=0;entryDx=0;entryDy=0;exitX=0.5;exitY=1;exitDx=0;exitDy=0;" parent="WIyWlLk6GJQsqaUBKTNV-1" source="gxxZRGfVhdAJ79STQYsQ-105" target="8ujiRsxlkH-QBAE6qNTh-2" edge="1">
          <mxGeometry relative="1" as="geometry" />
        </mxCell>
        <mxCell id="gxxZRGfVhdAJ79STQYsQ-105" value="AsnCodecRouterServiceController.java" style="rounded=0;whiteSpace=wrap;html=1;fillColor=#dae8fc;strokeColor=#6c8ebf;" parent="WIyWlLk6GJQsqaUBKTNV-1" vertex="1">
          <mxGeometry x="-250" y="-310" width="210" height="60" as="geometry" />
        </mxCell>
        <mxCell id="jXXAGItoZEFWX7bIlFFn-113" value="" style="group" parent="WIyWlLk6GJQsqaUBKTNV-1" vertex="1" connectable="0">
          <mxGeometry x="60" y="-860" width="300" height="600" as="geometry" />
        </mxCell>
        <mxCell id="jXXAGItoZEFWX7bIlFFn-104" value="&lt;font style=&quot;font-size: 24px&quot;&gt;Submodule&lt;/font&gt;" style="shape=process;whiteSpace=wrap;html=1;backgroundOutline=1;fillColor=#d5e8d4;strokeColor=#82b366;labelBackgroundColor=none;" parent="jXXAGItoZEFWX7bIlFFn-113" vertex="1">
          <mxGeometry x="56.25" y="336.5853658536585" width="180" height="87.80487804878048" as="geometry" />
        </mxCell>
        <mxCell id="jXXAGItoZEFWX7bIlFFn-109" value="Key" style="swimlane;labelBackgroundColor=none;fontSize=18;" parent="jXXAGItoZEFWX7bIlFFn-113" vertex="1">
          <mxGeometry width="299.99999999999994" height="600" as="geometry" />
        </mxCell>
        <mxCell id="jXXAGItoZEFWX7bIlFFn-111" value="&lt;font style=&quot;font-size: 24px&quot;&gt;Data Flow&lt;/font&gt;" style="text;html=1;strokeColor=none;fillColor=none;align=center;verticalAlign=middle;whiteSpace=wrap;rounded=0;labelBackgroundColor=none;" parent="jXXAGItoZEFWX7bIlFFn-109" vertex="1">
          <mxGeometry x="90" y="541.46" width="120" height="43.9" as="geometry" />
        </mxCell>
        <mxCell id="jXXAGItoZEFWX7bIlFFn-112" value="" style="endArrow=classic;html=1;rounded=0;labelBackgroundColor=none;" parent="jXXAGItoZEFWX7bIlFFn-109" edge="1">
          <mxGeometry width="50" height="50" relative="1" as="geometry">
            <mxPoint x="108.75" y="541.4634146341463" as="sourcePoint" />
            <mxPoint x="183.74999999999997" y="468.29268292682923" as="targetPoint" />
          </mxGeometry>
        </mxCell>
        <mxCell id="jXXAGItoZEFWX7bIlFFn-103" value="&lt;font style=&quot;font-size: 24px&quot;&gt;Kafka Topic&lt;/font&gt;" style="ellipse;whiteSpace=wrap;html=1;fillColor=#fff2cc;strokeColor=#d6b656;labelBackgroundColor=none;" parent="jXXAGItoZEFWX7bIlFFn-109" vertex="1">
          <mxGeometry x="56.25" y="175.60975609756096" width="180" height="117.07317073170731" as="geometry" />
        </mxCell>
        <mxCell id="jXXAGItoZEFWX7bIlFFn-102" value="&lt;font style=&quot;font-size: 24px&quot;&gt;ODE Java Class&lt;/font&gt;" style="rounded=1;whiteSpace=wrap;html=1;fillColor=#dae8fc;strokeColor=#6c8ebf;labelBackgroundColor=none;" parent="jXXAGItoZEFWX7bIlFFn-109" vertex="1">
          <mxGeometry x="48.13" y="58.54" width="196.25" height="87.8" as="geometry" />
        </mxCell>
        <mxCell id="jXXAGItoZEFWX7bIlFFn-125" style="rounded=0;orthogonalLoop=1;jettySize=auto;html=1;labelBackgroundColor=none;fontSize=18;" parent="WIyWlLk6GJQsqaUBKTNV-1" source="jXXAGItoZEFWX7bIlFFn-124" target="gxxZRGfVhdAJ79STQYsQ-1" edge="1">
          <mxGeometry relative="1" as="geometry" />
        </mxCell>
        <mxCell id="TZf5zM55fmWr_lRqRG1q-4" style="edgeStyle=orthogonalEdgeStyle;rounded=0;orthogonalLoop=1;jettySize=auto;html=1;entryX=1.008;entryY=0.367;entryDx=0;entryDy=0;entryPerimeter=0;" edge="1" parent="WIyWlLk6GJQsqaUBKTNV-1" source="jXXAGItoZEFWX7bIlFFn-124" target="6v1VqQN9XycCZhG1BsOU-9">
          <mxGeometry relative="1" as="geometry" />
        </mxCell>
        <mxCell id="jXXAGItoZEFWX7bIlFFn-124" value="" style="ellipse;shape=cloud;whiteSpace=wrap;html=1;labelBackgroundColor=none;fontSize=18;" parent="WIyWlLk6GJQsqaUBKTNV-1" vertex="1">
          <mxGeometry x="-500" y="-1060" width="120" height="80" as="geometry" />
        </mxCell>
        <mxCell id="fSHBEm1k4UqAdWbgax0q-14" value="message arrives encoded with Asn1.c" style="text;html=1;align=center;verticalAlign=middle;resizable=0;points=[];autosize=1;strokeColor=none;fillColor=none;" parent="WIyWlLk6GJQsqaUBKTNV-1" vertex="1">
          <mxGeometry x="-360" y="-800" width="220" height="20" as="geometry" />
        </mxCell>
        <mxCell id="fSHBEm1k4UqAdWbgax0q-15" value="message is decoded into POJO" style="text;html=1;strokeColor=none;fillColor=none;align=center;verticalAlign=middle;whiteSpace=wrap;rounded=0;" parent="WIyWlLk6GJQsqaUBKTNV-1" vertex="1">
          <mxGeometry x="-375" y="-370" width="110" height="50" as="geometry" />
        </mxCell>
        <mxCell id="fSHBEm1k4UqAdWbgax0q-16" value="message is converted into json" style="text;html=1;align=center;verticalAlign=middle;resizable=0;points=[];autosize=1;strokeColor=none;fillColor=none;" parent="WIyWlLk6GJQsqaUBKTNV-1" vertex="1">
          <mxGeometry x="-410" y="80" width="180" height="20" as="geometry" />
        </mxCell>
        <mxCell id="fSHBEm1k4UqAdWbgax0q-17" value="message is filtered/redacted" style="text;html=1;strokeColor=none;fillColor=none;align=center;verticalAlign=middle;whiteSpace=wrap;rounded=0;" parent="WIyWlLk6GJQsqaUBKTNV-1" vertex="1">
          <mxGeometry x="-32.5" y="220" width="105" height="50" as="geometry" />
        </mxCell>
        <mxCell id="vuepou-b3sqZaG1YYVKJ-2" value="messages are in JSON format and filtered" style="text;html=1;strokeColor=none;fillColor=none;align=center;verticalAlign=middle;whiteSpace=wrap;rounded=0;" parent="WIyWlLk6GJQsqaUBKTNV-1" vertex="1">
          <mxGeometry x="240" y="165" width="105" height="50" as="geometry" />
        </mxCell>
        <mxCell id="vuepou-b3sqZaG1YYVKJ-3" value="messages are in JSON format" style="text;html=1;strokeColor=none;fillColor=none;align=center;verticalAlign=middle;whiteSpace=wrap;rounded=0;" parent="WIyWlLk6GJQsqaUBKTNV-1" vertex="1">
          <mxGeometry x="-315" y="165" width="105" height="50" as="geometry" />
        </mxCell>
        <mxCell id="vuepou-b3sqZaG1YYVKJ-4" value="messages are in POJO format --&amp;gt;" style="text;html=1;align=center;verticalAlign=middle;resizable=0;points=[];autosize=1;strokeColor=none;fillColor=none;" parent="WIyWlLk6GJQsqaUBKTNV-1" vertex="1">
          <mxGeometry x="-660" y="-30" width="200" height="20" as="geometry" />
        </mxCell>
        <mxCell id="vuepou-b3sqZaG1YYVKJ-5" value="&amp;lt;-- messages are in POJO format" style="text;html=1;align=center;verticalAlign=middle;resizable=0;points=[];autosize=1;strokeColor=none;fillColor=none;" parent="WIyWlLk6GJQsqaUBKTNV-1" vertex="1">
          <mxGeometry x="72.5" y="-30" width="200" height="20" as="geometry" />
        </mxCell>
        <mxCell id="6v1VqQN9XycCZhG1BsOU-9" value="offloaded files" style="shape=cube;whiteSpace=wrap;html=1;boundedLbl=1;backgroundOutline=1;darkOpacity=0.05;darkOpacity2=0.1;" parent="WIyWlLk6GJQsqaUBKTNV-1" vertex="1">
          <mxGeometry x="-770" y="-960" width="120" height="80" as="geometry" />
        </mxCell>
        <mxCell id="6v1VqQN9XycCZhG1BsOU-10" style="edgeStyle=orthogonalEdgeStyle;rounded=0;orthogonalLoop=1;jettySize=auto;html=1;" parent="WIyWlLk6GJQsqaUBKTNV-1" source="6v1VqQN9XycCZhG1BsOU-9" target="6v1VqQN9XycCZhG1BsOU-11" edge="1">
          <mxGeometry relative="1" as="geometry" />
        </mxCell>
        <mxCell id="TZf5zM55fmWr_lRqRG1q-3" style="edgeStyle=orthogonalEdgeStyle;rounded=0;orthogonalLoop=1;jettySize=auto;html=1;exitX=0.5;exitY=1;exitDx=0;exitDy=0;entryX=0.5;entryY=0;entryDx=0;entryDy=0;" edge="1" parent="WIyWlLk6GJQsqaUBKTNV-1" source="6v1VqQN9XycCZhG1BsOU-11" target="6v1VqQN9XycCZhG1BsOU-13">
          <mxGeometry relative="1" as="geometry" />
        </mxCell>
        <mxCell id="6v1VqQN9XycCZhG1BsOU-11" value="FileUploadController.java" style="rounded=0;whiteSpace=wrap;html=1;fillColor=#dae8fc;strokeColor=#6c8ebf;" parent="WIyWlLk6GJQsqaUBKTNV-1" vertex="1">
          <mxGeometry x="-780" y="-830" width="140" height="60" as="geometry" />
        </mxCell>
        <mxCell id="TZf5zM55fmWr_lRqRG1q-5" style="edgeStyle=orthogonalEdgeStyle;rounded=0;orthogonalLoop=1;jettySize=auto;html=1;entryX=0;entryY=0.5;entryDx=0;entryDy=0;" edge="1" parent="WIyWlLk6GJQsqaUBKTNV-1" source="6v1VqQN9XycCZhG1BsOU-13" target="gxxZRGfVhdAJ79STQYsQ-3">
          <mxGeometry relative="1" as="geometry" />
        </mxCell>
        <mxCell id="6v1VqQN9XycCZhG1BsOU-13" value="LogFileToAsn1CodecPublisher,java" style="rounded=0;whiteSpace=wrap;html=1;fillColor=#dae8fc;strokeColor=#6c8ebf;" parent="WIyWlLk6GJQsqaUBKTNV-1" vertex="1">
          <mxGeometry x="-815" y="-720" width="210" height="60" as="geometry" />
        </mxCell>
      </root>
    </mxGraphModel>
  </diagram>
</mxfile>
